<?xml version="1.0" encoding="UTF-8" standalone="no"?>
<svg
   width="1248"
   height="832"
   viewBox="0 0 1248 832"
   version="1.1"
   id="svg4"
   sodipodi:docname="chaser_logo.svg"
   inkscape:version="1.4.2 (ebf0e940d0, 2025-05-08)"
   xmlns:inkscape="http://www.inkscape.org/namespaces/inkscape"
   xmlns:sodipodi="http://sodipodi.sourceforge.net/DTD/sodipodi-0.dtd"
   xmlns="http://www.w3.org/2000/svg"
   xmlns:svg="http://www.w3.org/2000/svg">
  <defs
     id="defs4">
    <inkscape:path-effect
       effect="fill_between_many"
       method="originald"
       linkedpaths="#path1,0,1|"
       id="path-effect34" />
  </defs>
  <sodipodi:namedview
     id="namedview4"
     pagecolor="#ffffff"
     bordercolor="#000000"
     borderopacity="0.25"
     inkscape:showpageshadow="2"
     inkscape:pageopacity="0.0"
     inkscape:pagecheckerboard="0"
     inkscape:deskcolor="#d1d1d1"
     inkscape:zoom="1.4142136"
     inkscape:cx="818.82963"
     inkscape:cy="339.41125"
     inkscape:window-width="2532"
     inkscape:window-height="1358"
     inkscape:window-x="0"
     inkscape:window-y="0"
     inkscape:window-maximized="1"
     inkscape:current-layer="svg4"
     showguides="true" />
  <g
     id="g4"
     inkscape:label="ferris"
     style="display:inline"
     transform="translate(-0.92807764,0.70710678)">
    <path
       style="display:inline;fill:#f74c00;fill-opacity:1"
       d="m 633.28906,208.5 c -0.64,0 -3.44828,3.26023 -6.23828,7.24023 -2.8,3.98 -6.09031,7.86891 -7.32031,8.62891 -1.23,0.77 -6.06047,1.69078 -10.73047,2.05078 -4.67,0.35 -10.75977,0.90072 -13.50977,1.2207 -4.92,0.57 -5.18976,0.44873 -13.25976,-5.53124 -4.53,-3.36001 -8.88039,-6.10938 -9.65039,-6.10938 -0.88,0 -2.4093,2.98937 -4.0293,7.85938 -1.44,4.31997 -3.17008,8.53132 -3.83008,9.36132 -0.67,0.84 -5.0507,2.75953 -9.7207,4.26953 -4.67,1.51 -11.53047,4.26891 -15.23047,6.12891 -3.69,1.86 -7.99859,3.38086 -9.55859,3.38086 -1.56,0 -6.74172,-1.31969 -11.51172,-2.92969 -4.77,-1.61 -8.84856,-2.63 -9.0586,-2.25 -0.22,0.37 -0.72132,5.06016 -1.11132,10.41016 l -0.70899,9.71875 L 489.7207,277 h -20.88086 l 0.65039,3.25 c 0.36,1.79 1.29008,5.87008 2.08008,9.08008 1.94,7.93 1.9193,8.0693 -2.2207,14.7793 -3.61,5.85 -3.73883,5.94039 -11.79883,8.40039 -4.49,1.37 -8.67101,2.49023 -9.29101,2.49023 -2.79,0 -1.95969,2.4893 3.32031,10.0293 l 5.66015,8.08008 -1.57031,6.70117 c -0.87,3.68 -1.88976,8.48945 -2.25976,10.68945 -0.98,5.76 -2.81086,8.85047 -7.38086,12.48047 -2.22,1.75 -4.0293,3.75922 -4.0293,4.44922 0,1.81 22.48945,22.57031 24.43945,22.57031 2.89,0 7.91133,2.64055 14.86133,7.81055 0,0 4.88638,2.97969 6.79883,5.05859 23.55461,25.6047 87.83625,36.6903 138.40039,38.19141 l 12,-0.58985 c 36.66006,-1.81037 72.04671,-11.01882 99.39453,-25.6914 0.72889,0.23654 1.62727,0.53448 2.25977,0.74023 0.83,0.28 4.49992,0.54008 8.16992,0.58008 2.43135,0.0294 4.07225,-0.0132 5.35351,-0.23828 0.0421,0.86384 0.30353,1.88165 0.70118,3.38281 2.23001,8.37 8.31961,19.40016 12.09961,21.91016 0.46543,0.308 1.26889,0.53956 1.30664,0.80273 0.0707,0.49305 -0.75888,4.23853 -1.38282,7.47852 -1.9214,10.09908 -1.73712,13.99252 -0.66992,12.78906 12.39229,-14.20301 10.93637,-19.29464 11.88086,-20.47852 2.7445,-3.44013 -0.13256,-10.72556 -1.50586,-14.6914 -3.55812,-9.46041 -9.35276,-15.346 -13.17578,-23.45899 -0.59442,-1.26144 -1.26763,-2.81173 -2.74414,-3.4707 5.39199,-4.37692 10.17323,-9.05039 14.24414,-13.99023 0.84243,-1.02231 12.63139,0.87799 30.8418,-2.04883 -4.57516,23.88591 14.89989,45.80405 46.57422,51.54883 11.73,2.12999 23.8307,1.48127 31.9707,-1.71875 l 2.82031,-1.11133 -2.41015,-2.08985 c -1.32,-1.16 -3.16938,-3.28047 -4.10938,-4.73046 -1.21,-1.88 -2.90016,-2.81883 -5.91016,-3.29883 -6.17,-0.98 -8.42046,-2.83961 -9.23046,-7.59961 -0.59,-3.54 -1.35954,-4.52007 -5.51954,-7.08008 -6.15,-3.78999 -9.24101,-9.76063 -9.79101,-18.89063 -0.44,-7.31 0.49101,-7.19914 3.29101,0.38086 0.99,2.69 2.64016,5.73 3.66016,6.75 2.5,2.5 8.88961,2.43914 13.09961,-0.13086 4.85,-2.96 7.38859,-2.5192 12.05859,2.05079 3.48,3.42001 4.54188,3.93929 6.67188,3.27929 5.19,-1.58 10.40859,-0.84062 14.80859,2.10938 2.35,1.57 9.35914,1.2307 9.61914,0.9707 0.95,-0.95 -7.53797,-10.92008 -10.66797,-16.83008 -4.36,-8.26 -17.33078,-21.23056 -26.05078,-26.06054 -11.72,-6.49001 -20.47992,-8.82008 -33.16992,-8.83008 -11.24249,0 -18.15599,1.47938 -23.59961,6.18554 -0.0164,2.6e-4 -0.0321,-3.7e-4 -0.0488,0 -1.50323,0.0336 -8.46079,6.50265 -11.64453,9.48829 -7.51856,1.64188 -15.27748,2.48144 -22.90625,3.33007 -0.36753,-0.34618 9.93624,-18.26548 10.39063,-21.73828 0.27,-2.07 -0.39969,-2.73 -4.67969,-4.5 -6.95,-2.88 -7.24914,-3.13062 -9.86914,-8.39062 -2.18,-4.38 -2.24,-4.99969 -1,-9.67969 0.73,-2.75 1.33961,-6.24 1.34961,-7.75 L 781,317 h -7.31055 c -8.16,0 -8.82914,-0.44086 -15.61914,-10.13086 l -3.24023,-4.63867 1.20898,-9.65039 c 0.67,-5.31 0.94133,-9.92953 0.61133,-10.26953 -0.34,-0.33 -3.86031,-0.0699 -7.82031,0.58007 l -7.19922,1.18946 -6.31055,-6.25977 L 729,271.56055 v -9.72071 c 0,-5.35 -0.39086,-9.96976 -0.88086,-10.25976 -0.48,-0.3 -4.16945,0.56945 -8.18945,1.93945 -4.02,1.37 -8.01914,2.27024 -8.86914,1.99024 -0.86,-0.27 -4.89121,-2.86 -8.95117,-5.75 L 694.7207,244.5 l -2.80078,-9.39062 c -1.54,-5.16 -3.18015,-9.77003 -3.66015,-10.25 -0.47,-0.47 -4.36954,1.37062 -8.76954,4.14062 -4.35,2.75 -8.38117,4.9807 -8.95117,4.9707 -0.57,-0.02 -5.98929,-1.49148 -12.02929,-3.27148 l -10.99024,-3.23828 -6.5293,-9.48047 c -3.6,-5.21 -7.06117,-9.48047 -7.70117,-9.48047 z"
       id="path2"
       inkscape:label="body"
       sodipodi:nodetypes="scccccsccscsscccccccccscccccsscsccccccccsccscscscccccccccccsccccsccccccsccccccsccccccccscsccccscccccs" />
    <path
       id="path30"
       style="display:inline;fill:#a52b00;fill-opacity:1"
       inkscape:label="body_dark"
       d="m 473.92578,394.0957 c -2.35154,-0.0363 -32.38558,0.0295 -38.25,3.52344 -11.1403,7.82139 -20.88796,17.64416 -29.14453,28.45703 -6.44745,8.67806 -6.64561,21.29515 -4.87305,31.5918 2.43572,1.42828 5.52191,-12.46438 8.43946,-15.21485 4.46226,1.57282 8.36239,-2.29138 11.3789,-5.04296 6.50444,-6.51614 12.42804,-13.59999 18.14063,-20.8125 1.7693,2.74439 14.45995,3.05684 22.27539,-2.98633 7.83793,-4.63935 16.66581,-7.03271 25.2793,-9.82031 10.08729,6.80546 23.77135,14.86225 24.99609,15.47851 19.35141,9.7372 65.84149,20.6437 106.30078,22.70313 42.86096,2.18168 93.78125,-15.87305 93.78125,-15.87305 l 5.19922,6.25 c 2.87,3.44 7.08086,7.62102 9.38086,9.29101 2.01342,1.46486 4.40104,1.74727 4.71094,2.51758 0.37749,0.93831 -0.44615,2.55819 -0.69727,5.03516 -0.38,3.66 -0.79056,7.44196 -1.21094,11.16016 -0.16968,1.50078 -1.70848,7.50742 2.55078,1 3.57327,-5.45935 7.96954,-12.55 8.76953,-17.5 0.21002,-1.28947 0.12597,-1.8684 0.30469,-2.66211 0.0998,-0.44339 1.63858,-1.19859 1.62305,-1.6211 -0.0463,-1.26033 -3.69141,-5.29101 -3.69141,-5.29101 -5.46337,-7.80481 -11.36414,-13.72454 -11.81445,-14.26953 2.67623,-1.10963 10.23354,-5.14183 10.54492,-5.23243 0.003,-9.6e-4 0.009,-0.004 0.0117,-0.006 l 0.002,-0.002 v -0.002 l 0.002,-0.002 0.002,-0.002 v -0.002 -0.002 -0.002 c -3e-5,-8.4e-4 1.3e-4,-0.005 0,-0.006 l -0.002,-0.002 c -0.0806,-0.23579 -3.11785,-1.74941 -7.62696,-1.39648 -11.78166,0.92214 -25.52739,9.63984 -41.03125,12.41015 -24.54088,4.38509 -48.06551,8.8232 -70.39453,8.22266 -29.97065,-0.80606 -79.36096,-11.73685 -104.05664,-23.50195 -6.68415,-3.18435 -10.05166,-13.25314 -13.37224,-20.79601 -5.54199,-12.58894 -11.48814,-26.17817 -10.5262,-39.89931 0.54577,-33.26597 17.0422,-53.49581 41.99385,-71.21454 23.6974,-16.82806 62.37418,-44.2998 62.31867,-49.32181 -0.10782,-9.75604 -23.95749,1.97913 -30.63744,4.18083 -39.62114,13.05905 -95.90478,65.17611 -102.97485,83.09467 -3.40467,8.62889 0.8616,29.63578 5.67123,47.68425 4.37689,16.42462 9.20378,30.39922 9.10901,30.36566 -5.8e-4,-2e-4 -0.001,2.1e-4 -0.002,0 -0.25863,-0.0916 -0.51998,-0.18009 -0.7832,-0.26171 -0.56077,-0.11031 -1.12798,-0.17645 -1.69727,-0.22071 z"
       sodipodi:nodetypes="cccccccccsscccscsscssccscccccccsccssssaasssssscccc" />
    <path
       id="path37"
       style="display:inline;fill:#f74c00;fill-opacity:1"
       d="m 508.39188,428.95167 c -2.66257,1.71687 -2.82842,2.72634 0.58155,2.72265 8.23215,0.44555 12.79318,8.61289 13.52485,16.00495 -0.88842,9.11722 8.7805,2.97614 12.92591,1.09782 5.30251,-2.48619 9.36848,-9.16003 5.98886,-14.71522 -6.46277,-10.91396 -23.54294,-13.62805 -33.02117,-5.1102 z m 20.18788,-16.22375 c -12.31152,8.08695 -41.37547,27.8139 -48.02909,50.0744 -1.50034,2.66267 -0.75981,14.93509 2.41139,7.39066 6.38482,-14.42967 21.6172,-22.59856 36.45117,-25.70231 3.89282,-4.13072 4.6818,-11.79275 9.37656,-16.38736 1.79459,-4.03957 26.4493,-16.69005 24.90951,-20.64998 6.25455,-11.15591 -17.12283,0.0219 -25.11954,5.27459 z m 14.03547,21.19396 c -16.9072,0.15914 -34.38341,3.25015 -48.94709,12.22034 -10.90389,6.70819 -16.05363,20.42045 -13.26775,32.75817 2.09527,14.40102 13.12748,25.35293 24.58272,33.28439 13.57685,8.86921 29.83337,13.16506 45.90543,14.09923 14.60342,-0.13867 29.82349,-0.31021 43.31815,-6.62427 6.63917,-2.83242 13.32827,-5.94595 18.68393,-10.89021 -7.7312,-1.57775 -16.02792,-1.73311 -23.01888,-5.66024 -3.47005,-2.73522 -5.11588,-6.9944 -7.48112,-10.60929 -4.99658,-0.36166 -10.58609,1.1038 -15.01226,-1.77215 -5.14341,-5.30943 -6.77267,-13.02813 -11.8491,-18.45829 -6.72705,-8.5117 -15.20979,-15.65344 -25.05336,-20.27475 -3.95206,-2.95902 5.58902,0.44897 7.05263,1.0769 11.26636,3.58466 19.77704,12.41358 27.07108,21.31891 4.17011,6.93134 10.04293,-2.8915 14.32023,-5.02162 5.79278,-2.40095 11.33029,2.04835 15.72078,5.47084 5.52211,-2.18869 11.39101,-4.04207 17.38259,-2.74973 1.84332,-0.0165 6.05737,1.61109 3.60775,-1.38261 -4.37674,-8.59816 -11.72648,-15.32109 -18.93768,-21.55132 -15.59948,-11.02055 -35.22332,-15.15715 -54.07805,-15.2343 z"
       sodipodi:nodetypes="ccccccscccccscccccccccccccccccccc"
       inkscape:label="hand" />
    <path
       id="path35"
       style="display:inline;opacity:1;fill:#000000"
       d="m 642.48846,396.47128 c -7.99593,0.0266 -12.79815,-7.78893 -15.35426,-14.4273 -4.81424,-11.73331 -2.79171,-26.12944 5.65553,-35.68671 3.96293,-4.76627 11.48943,-5.98939 16.40368,-1.96107 8.28734,6.23529 12.10398,17.27329 10.41693,27.39053 -1.1397,8.35472 -3.75729,17.59204 -10.97995,22.70814 -1.82381,1.18887 -3.9619,1.90067 -6.14193,1.97641 z m 86.60443,-10.28549 c -6.25549,4.17649 -14.77122,2.27663 -18.94526,-4.03827 -7.12968,-10.22951 -6.9199,-24.33882 -1.91603,-35.41522 2.99225,-6.7637 10.27495,-12.85832 18.05638,-10.77531 9.32532,2.84046 13.77105,12.92024 13.54601,22.31644 -0.26125,10.90806 -0.74279,21.23696 -10.7411,27.91236 z M 695.25,412.01 c -10.92239,3.51687 -22.86256,-0.73169 -31.65832,-7.40871 -4.43067,-2.86025 -0.69333,-3.17876 3.25869,-3.21016 25.75629,-0.20462 34.23662,-4.6057 45.55249,-4.60608 2.62305,-9e-5 -5.30892,7.69696 -8.61473,10.5671 -2.65845,1.85869 -5.46979,3.56615 -8.53813,4.65785 z"
       inkscape:label="face"
       sodipodi:nodetypes="ssssscsscccsssssscs" />
    <path
       id="path10"
       style="display:inline;fill:#d2dfea;fill-opacity:1"
       d="m 714.95898,345.36914 c -0.12167,6.4e-4 -0.24526,0.008 -0.36914,0.0215 -3.84028,0.40667 -5.22909,6.75965 -4.70703,10.58594 0.46867,3.43492 3.16279,8.3157 6.61719,8.02344 3.4242,-0.2897 5.31543,-5.512 5.12891,-8.94336 -0.20959,-3.85597 -2.89811,-9.70719 -6.66993,-9.6875 z m -77.39062,6.71094 c -1.32693,0.0221 -2.61298,0.41386 -3.44727,1.21289 -3.91177,3.7465 -3.89658,12.74736 0.23829,16.24609 1.7015,1.43975 5.09956,0.6281 6.61132,-1.00976 3.35011,-3.62955 4.31809,-11.06816 1.0586,-14.7793 -0.98013,-1.11594 -2.75489,-1.69828 -4.46094,-1.66992 z"
       inkscape:label="eye" />
  </g>
  <g
     id="g17"
     inkscape:label="rocket"
     transform="translate(27.321808,2.354816)"
     style="display:inline">
    <path
       style="display:inline;opacity:1;fill:#0d2326;fill-opacity:1"
       d="m 473.14492,401.83676 c -33.88444,20.66862 -35.53812,14.39804 -48.73776,13.64901 -6.22279,-0.35312 -14.87412,-5.2956 -17.32013,-7.04583 -3.35816,-2.40292 -7.46334,-1.02655 -12.37703,-0.51994 -9.4,1.07 -13.85,0.33 -18.1,-3.01 -3.93,-3.1 -8.06,-9.64 -10.67,-16.91 -2.52,-7.04 -3.29,-7.96 -6.64,-7.98 -3.19,-0.03 -7.3,-2.12 -7.3,-3.72 0,-0.76 2.01,-2.6 4.47,-4.09 l 4.47,-2.71 0.04,-8 c 0.06,-9.91 2.4325,-16.27625 6.0225,-22.39625 3.02,-5.15 12.5775,-10.3825 16.5875,-11.29375 4.35,-1.27 8.04,-2.59 8.2,-2.94 0.17,-0.35 1.81,-3.14 3.66,-6.21 3.71,-6.17 3.62,-6.48 -2.84,-9.18 -2.73,-1.14 -6.8,-1.52 -15.19,-1.41 -15.97,0.2 -17.85,-1.59 -9.67,-9.23 10.18,-9.51 30.09,-20.63 41,-22.89 4.94,-1.03 6.6,-0.91 13.59,0.96 4.37,1.17 8.14,1.94 8.37,1.71 0.23,-0.23 1.03,-3.34 1.78,-6.9 2.78,-13.27 8.49,-20.3 26.6,-32.72 10.5,-7.2 31.59,-17.83 42.42,-21.38 22.76,-7.46 42.9,-7.51 57.42,-0.16 l 4.89,2.48 c 2.53544,2.04652 5.73779,4.05347 4.47292,7.83677 -1.2647,3.78276 -17.09908,11.18953 -22.65417,13.45678 -12.84743,5.24352 -27.28436,22.51325 -47.22081,32.08785 -11.8897,5.7101 -20.7366,19.63028 -24.97343,24.75518 -9.57018,11.57616 -13.68691,28.50633 -17.76028,45.29835 -4.19601,17.29761 18.75559,57.98531 17.46069,58.46183 z"
       id="path1"
       inkscape:label="black"
       sodipodi:nodetypes="sssccccsccccccccccccscccccssssss" />
    <path
       d="m 364.9675,385.3675 c 3.66872,10.40962 20.56613,26.99516 27.85895,22.7492 -15.80641,-1.0376 -27.69067,12.84191 -43.71207,13.05268 -14.76912,2.3522 -30.71656,0.20687 -43.15485,-8.49547 22.38073,2.32291 47.41069,4.44368 67.17703,-7.81375 -0.0838,-10.33495 -11.19721,-3.63315 -16.7077,-3.35024 -12.76119,2.93742 -27.18029,5.8404 -39.61109,0.58508 -1.05797,-7.32183 -4.92732,-8.37389 -11.97212,-7.72112 -14.23772,0.37993 -28.31192,-6.80381 -42.20612,-1.39591 -10.62155,1.17896 -29.64026,1.87197 -34.57703,-2.72172 24.51064,-2.15473 46.81743,-12.84477 68.91006,-22.77539 9.18684,-1.78543 14.38667,-5.33489 15.69258,-14.18986 15.21358,-9.31185 33.75117,-8.63451 50.68095,-11.62334 1.94631,-8.41157 -18.48508,-3.15886 -25.79997,-4.34876 -17.1296,0.0616 -33.64179,5.69454 -49.14612,12.4111 14.99474,-14.21874 35.48578,-23.82078 56.6,-22.2 12.28643,-0.0922 38.79044,-5.53811 41.55831,-0.61102 -23.33612,6.28831 -23.50715,22.67958 -23.51653,24.30295 -0.0752,13.01208 -0.25264,14.39767 1.92572,34.14557 z m 77.345,-30.815 C 437.45942,346.75672 425.77799,349.92118 418,349.78 c -0.62056,-7.88197 1.93405,-26.09805 3.56,-26.11 0.21769,-0.98574 0.39484,-1.88464 1.06,-3.79 6.44339,-25.65808 15.78058,-14.39893 27.95,-15.56 5.26511,-13.7208 18.53134,-9.50904 15.89331,-7.73241 -1.69957,1.14462 -3.17888,6.78773 -6.18825,9.93973 -4.69728,4.91989 -13.20742,52.69879 -17.96256,48.02518 z M 484.14,269.67 c -5.0654,-6.9315 -6.01858,-28.14778 -4.41875,-28.96375 13.28553,-4.99877 29.10591,-14.89934 46.46714,-16.53355 9.45537,-2.27883 31.65015,4.05777 34.101,4.2147 -11.68137,5.26667 -23.43144,8.78371 -34.35308,15.70874 C 511.6677,251.54024 499.31112,261.97213 486.11,271 l -0.93625,-0.39125 z m -42.52,14.7 c -9.28781,-2.26395 -2.78809,-14.62491 -1.03,-20.54 3.42277,8.61552 13.97179,-11.4661 20.46094,-13.73297 4.61182,-1.32165 13.65605,-10.681 12.91883,-6.86831 -0.91986,8.54772 6.2312,22.44808 4.34982,27.77128 -14.66402,-3.67564 -13.35524,13.806 -26.63053,14.20172 -4.7752,1.10711 -5.96547,0.32505 -10.06906,-0.83172 z m -41.68,23.09 c -5.8213,-6.06398 -20.91742,-5.11365 -24.2025,-5.77062 11.3181,-6.88139 21.5549,-15.65485 34.72365,-17.79521 9.5408,-2.14367 26.33344,6.23701 27.82371,6.89109 -10.72129,5.59864 -25.02389,12.31564 -35.09486,19.06474 -1.08333,-0.79667 -2.16667,-1.59333 -3.25,-2.39 z m -7.58,41 c -0.83608,-8.53194 7.66058,-28.69806 8.91812,-28.60641 4.35166,-5.61473 20.51705,-11.61623 16.59141,-0.20031 -3.22894,10.32165 -4.59284,21.081 -5.13953,31.84672 -6.75308,1.67932 -13.52338,3.3238 -20.19141,5.30187 -1.48289,-2.36671 0.11641,-5.74676 -0.17859,-8.34187 z m 14.72,52.98 c -3.41877,-7.47613 -20.53141,-25.86922 -2.46,-25.6 12.68021,-7.20206 17.69431,11.4637 18.11575,19.00207 -4.17441,3.97406 -9.71204,15.73771 -15.65575,6.59793 z m 19.12,-13.11 c -4.24728,-7.49082 -8.83093,-19.96796 4.55,-19.21 9.81943,-2.26906 21.61595,5.89491 24.25,20.17 -8.7693,1.96839 -17.92482,1.95058 -26.88,2.87 -0.64,-1.27667 -1.28,-2.55333 -1.92,-3.83 z m -54.94,-13.51 c 7.22527,-2.40004 0.1011,-5.65186 10.32197,-7.20358 16.91016,-4.92825 37.93017,-11.68405 54.87053,-10.14517 -0.86627,2.63503 0.1,2.90062 -4.24125,4.8225 -19.40318,7.39023 -40.38662,10.45933 -60.95125,12.52625 z m -36.55,-59.37 c -5.83193,-0.60762 -23.64696,6.80038 -21.58641,2.89906 11.16228,-6.48196 23.59343,-14.81373 37.06032,-12.42703 7.28319,7.46238 -11.84553,8.71885 -15.47391,9.52797 z m 31.02,122.25 c -4.97212,3.61157 -23.60316,2.60234 -22.31799,-1.85771 5.78579,-0.38939 25.05881,-9.33469 22.31799,1.85771 z m -78.08,-26.92 c -4.34756,4.9163 -31.96807,0.007 -15.135,-3.1 3.18511,-0.39944 20.04958,-5.16423 15.135,3.1 z m -27.9,-49.4 c -5.07509,2.44461 -29.23445,4.7148 -14.06,-2.16875 2.56672,-2.70564 22.02913,-5.72325 14.06,2.16875 z m 21.96,5.02 c -5.2321,0.27477 -20.13971,3.9112 -8.92738,-2.97496 4.61705,-7.62414 26.58549,-3.03179 10.73691,2.63324 z m 123.2,42.15 c -6.20553,-2.69416 -14.36723,0.35924 -2.61,-1.17375 l 1.91906,0.32578 z M 365,374.2 c -0.0438,-0.48955 0.98659,1.39597 0,0 z m 39.91,34.35 c -5.83517,8.15501 -7.06943,9.62604 0,0 z"
       fill="#7da8bf"
       id="path3"
       sodipodi:nodetypes="cccccccccccccccccsccccccssccccccccccccccccccccccccccccccccccccccccccccccccccccccccccccccccccc"
       inkscape:label="rocket"
       style="fill:#7da8bf;fill-opacity:1" />
    <path
       id="path4"
       style="display:inline;fill:#d2dfea;fill-opacity:1"
       d="m 333.25,392.37 c -1.8,-0.77 -1.54,-2.73 0.75,-5.64 1.1,-1.4 2,-2.7 2,-2.89 0,-0.19 -7.99,-0.34 -17.75,-0.35 -4.88,0 -17.9283,-0.11468 -21.66463,-0.83664 -3.87389,-0.74854 -3.02281,-0.62521 -4.12281,-0.85525 L 298.84,378.93 c 8.06868,-3.62875 27.35,-9.93 30.58,-9.93 3.53,0 3.89,-1.36 1.05,-4.03 -1.36,-1.27 -2.47,-2.86 -2.47,-3.52 0,-2.27 9.34,-5.05 22.78,-6.78 l 10.22,-1.32 -0.03,8.08 -0.03,8.07 -4.47,2.71 c -2.46,1.49 -4.47,3.33 -4.47,4.09 0,1.6 4.11,3.69 7.3,3.72 3.46,0.02 4.86,1.44 5.04,5.09 0.16,3.37 0.12,3.4 -6.34,5.01 -6.92,1.72 -22.66,3.15 -24.75,2.25 z M 365,374.09 c 0,-2.22 31.9,-13.48 50,-17.65 13.2,-3.04 19.53,-3.19 20.97,-0.5 0.89,1.68 0.75,1.89 -1.06,1.54 -3.04,-0.58 -36.5,5.87 -45.91,8.86 -2.48,0.78 -6.44,2.01 -8.8,2.72 -2.37,0.71 -4.57,1.73 -4.9,2.27 -0.34,0.54 -0.1,0.66 0.55,0.27 1.65,-1.03 1.42,-0.01 -0.42,1.83 -1.69,1.69 -10.43,2.24 -10.43,0.66 z m 56.56,-50.42 c 0.97,-4.53 2.47555,-9.90041 2.57555,-7.74041 0.04,0.96 1.31445,2.07041 1.86445,2.07041 2.72,0 -0.55,8.17 -3.44,8.59 -1.39,0.21 -1.57,-0.3 -1,-2.92 z m -22.8725,0.695 c 0,-1.43 3.3225,-6.045 5.4625,-7.995 2.52,-2.27 17.79,-11.37 19.1,-11.37 0.43,0 -0.29,2.14 -1.6,4.75 -1.31,2.61 -2.77938,6.6125 -3.44938,8.8125 -0.67,2.2 -1.43729,5.09693 -1.69729,5.89693 -0.35,1.06 -1.08333,0.21057 -2.37333,-1.75943 -0.98,-1.5 -2.07,-2.42 -2.43,-2.07 -0.36,0.36 -1.43793,-0.47317 -2.18,-0.61 -0.50038,-0.0923 -1.05494,-0.34642 -1.52,-0.14 -0.38084,0.16903 -0.41452,0.75289 -0.75,1 -1.72666,1.27179 -4.1,0.33 -6.06,2.16 -1.21,1.12 -2.5025,1.645 -2.5025,1.325 z M 427,308.37 c 0,-0.35 0.95,-2.17 2.11,-4.04 2.32,-3.76 7.95,-6.93 22.39,-12.6 34.48965,-15.07272 15.88,6.39 14.73,4.66 -1.41,-2.13 -9.98,0.58 -13.07,4.14 -1.18,1.36 -1.84,2.47 -1.46,2.47 0.27625,0.34375 -0.13,0.6 -1.13,1.32 -1.26,0.93 -3.2,1.11 -6.44,0.62 -4.43,-0.68 -10.95,0.86 -13.58,3.21 -1.11,0.99 -3.55,1.14 -3.55,0.22 z m -54,-6.41 c 0,-1.83 12.67,-10.27 23,-15.33 9.87,-4.82 10.95,-5.13 18,-5.07 6.05,0.04 9.24,0.72 16.5,3.5 4.95,1.89 9,3.89 9,4.44 0,1.64 -6.78,3.47 -8.3,2.23 -0.96,-0.78 -1,-1.24 -0.13,-1.77 1.47,-0.91 -6.8,-3.6 -13.77,-4.48 -5.25,-0.66 -16.3,1.64 -16.3,3.39 0,0.45 -1.91,1.39 -4.25,2.09 -4.91,1.47 -12.17502,6.04885 -18.12,9.34 -0.87475,0.48426 -0.9,0.95 -2.58,1.53 -1.8,0.63 -3.05,0.68 -3.05,0.13 z m 67,-36.01 c 0,-5.51 17.23,-20.85 31.9,-28.4 l 3.39,-1.75 -0.64,3.22 c -0.36,1.78 -0.65,3.62 -0.65,4.09 0,0.48 -1.48,1.48 -3.29,2.24 -1.81,0.75 -3.95,2.01 -4.75,2.79 -0.8,0.79 -3.58,2.66 -6.16,4.16 -2.59,1.5 -5.29,3.92 -6,5.38 -0.72,1.46 -3.49,4.15 -6.16,5.99 -4.93,3.38 -7.64,4.19 -7.64,2.28 z m 60.25,-13.45 c -1.2502,-0.34415 -1.3042,-2.42026 -1.17,-3.71 0.0408,-0.39191 0.20407,-0.91198 0.58,-1.03 0.50496,-0.15852 1.07477,0.29767 1.43,0.69 0.59312,0.65507 1.12535,1.63295 0.91,2.49 -0.19044,0.7579 -0.99657,1.7674 -1.75,1.56 z m -21.22,-9.12 c -0.06,-9.22 0.48,-10.06 9.35,-14.25 16.82,-7.95 29.77,-11.23 44.38,-11.26 8.49,-0.01 11.67,0.45 18.02,2.59 4.25,1.43 8.6,3.27 9.67,4.08 1.82,1.38 1.84,1.59 0.3,3.14 -1.54,1.54 -2.02,1.54 -6.95,-0.07 -11.86,-3.85 -32,-2.98 -47.67,2.07 -7.15995,1.49888 -11.56037,6.80857 -17.81,9.58 -0.88112,0.35979 -5.46968,3.69418 -6.54,4.98 l -2.73,3.26 z"
       inkscape:label="rocket_white"
       sodipodi:nodetypes="ccscscsscscccccsccccscccccccssccsccscssscccssscssccccccccsscccscccscscsscccscccccssssssscccccccccccc" />
  </g>
  <path
     id="path45"
     style="display:inline;fill:#f74c00;fill-opacity:1"
     d="m 510.49364,401.87823 c -4.41865,-0.11846 -11.86797,2.0164 -27.32422,7.09765 -8.87578,2.91565 -14.78259,5.34618 -17.81641,7.36133 l -0.29882,-0.17578 -6.92969,6.87109 c -11.79387,11.68484 -24.39174,30.85285 -23.4961,35.67188 l 0.53711,7.82226 c 0.31,4.54001 1.56985,11.02133 2.83985,14.61133 1.25,3.56 2.58093,6.11922 2.96094,5.69922 0.37,-0.42 1.43937,-5.02976 2.35937,-10.25976 0.93,-5.23 1.93047,-10.49094 2.23047,-11.71094 0.0528,-0.21486 0.0932,-0.4108 0.11914,-0.5918 2.09592,-0.0165 4.01022,-0.47692 5.32031,-1.39258 2.34,-1.64 15.02039,-18.68981 20.15039,-27.08984 0.2766,-0.45188 0.54527,-0.91769 0.80078,-1.38477 2.04825,0.88123 4.87185,1.4922 6.97266,1.24805 2.34,-0.27 8.67055,-2.23887 14.06055,-4.37891 l 9.82031,-3.89062 5.58984,-7.75 c 3.08,-4.26 5.93008,-7.75 6.33008,-7.75 0.39,0 1.45914,-1.12977 2.36914,-2.50977 1.57,-2.41 1.54016,-2.62 -0.83984,-5 -1.545,-1.545 -3.10467,-2.42697 -5.75586,-2.49804 z"
     inkscape:label="leg" />
  <g
     id="g22"
     inkscape:label="icon"
     transform="matrix(0.68668205,0.1839959,-0.16292,0.60802574,-23.584255,-103.75106)">
    <ellipse
       style="fill:#a52b00;fill-opacity:1;stroke-width:1.00983"
       id="path17-2"
       cx="805.62268"
       cy="730.51202"
       rx="49.919552"
       ry="50.053162"
       transform="matrix(0.95889942,-0.28374619,0.23560434,0.97184906,0,0)" />
    <circle
       style="fill:#0d2326;fill-opacity:1"
       id="path17"
       cx="944.98474"
       cy="479.54633"
       r="49.5"
       sodipodi:insensitive="true" />
    <circle
       style="fill:#7da8bf;fill-opacity:1"
       id="path19"
       cx="944.95978"
       cy="478.62292"
       r="40.570251"
       sodipodi:insensitive="true" />
    <circle
       style="fill:#d2dfea;fill-opacity:1"
       id="path20"
       cx="923.125"
       cy="456.125"
       r="4.625"
       sodipodi:insensitive="true" />
    <ellipse
       style="fill:#d2dfea;fill-opacity:1"
       id="path22"
       cx="911.8125"
       cy="470.83719"
       rx="2.0625"
       ry="3.3371952"
       sodipodi:insensitive="true" />
    <path
       d="m 936.95095,492.78994 -0.14814,5.59782 -2.64547,0.0899 c -1.45501,0.0476 -3.65605,0.0159 -4.89414,-0.074 l -2.24865,-0.15872 v -25.33838 h 10.0528 v 5.82005 h 9.15865 c 6.58723,0 9.41789,-0.19047 10.07926,-0.67724 0.74603,-0.54497 0.89418,-1.32803 0.7619,-4.10049 l -0.15873,-3.42325 -29.89388,-0.28042 -0.0635,-3.03701 c -0.0318,-1.66664 -0.0952,-3.6243 -0.13228,-4.35445 l -0.0688,-1.32276 h 18.34374 c 14.68239,0 17.96278,0 19.69292,1.6349 0.51852,0.49206 0.89417,1.13226 1.4021,1.96294 1.49205,2.44443 1.52909,14.53954 0.0582,17.312 -1.19046,2.22749 -4.43911,4.20102 -6.94702,4.2116 l -1.84654,0.0106 5.78301,5.79889 c 4.68778,4.70366 5.60312,5.86238 4.85181,6.15338 -1.12169,0.42857 -10.85704,-0.0318 -11.97343,-0.56613 -0.43915,-0.21164 -2.93648,-2.73014 -5.5555,-5.60312 l -4.76186,-5.21688 -4.34916,-0.0211 -4.34387,-0.0159 z"
       fill="#2b2a28"
       id="path6"
       style="display:inline;opacity:1;fill:#0d2326;fill-opacity:1;stroke-width:0.529096"
       inkscape:label="text"
       sodipodi:nodetypes="ccccccccscccccccsccccccccccccc"
       sodipodi:insensitive="true" />
  </g>
</svg>
